<svg xmlns="http://www.w3.org/2000/svg" xmlns:xlink="http://www.w3.org/1999/xlink" width="128" zoomAndPan="magnify" viewBox="0 0 96 95.999999" height="128" preserveAspectRatio="xMidYMid meet" version="1.0"><defs><clipPath id="d51314e144"><path d="M 48 0 C 21.492188 0 0 21.492188 0 48 C 0 74.507812 21.492188 96 48 96 C 74.507812 96 96 74.507812 96 48 C 96 21.492188 74.507812 0 48 0 Z M 48 0 " clip-rule="nonzero"/></clipPath><clipPath id="182a1c9059"><path d="M 0 0 L 96 0 L 96 96 L 0 96 Z M 0 0 " clip-rule="nonzero"/></clipPath><clipPath id="84bbbe5c00"><path d="M 48 0 C 21.492188 0 0 21.492188 0 48 C 0 74.507812 21.492188 96 48 96 C 74.507812 96 96 74.507812 96 48 C 96 21.492188 74.507812 0 48 0 Z M 48 0 " clip-rule="nonzero"/></clipPath><clipPath id="a2941e2da2"><rect x="0" width="96" y="0" height="96"/></clipPath><clipPath id="4bb86e74ba"><path d="M 30 30 L 66 30 L 66 66 L 30 66 Z M 30 30 " clip-rule="nonzero"/></clipPath><clipPath id="82e2b69cbe"><path d="M 66.347656 31.101562 L 64.890625 66.355469 L 29.636719 64.898438 L 31.09375 29.644531 Z M 66.347656 31.101562 " clip-rule="nonzero"/></clipPath><clipPath id="eb0acf0430"><path d="M 65.617188 48.726562 C 66.019531 38.992188 58.453125 30.777344 48.722656 30.375 C 38.988281 29.972656 30.769531 37.539062 30.367188 47.273438 C 29.964844 57.003906 37.53125 65.222656 47.265625 65.625 C 57 66.027344 65.214844 58.460938 65.617188 48.726562 Z M 65.617188 48.726562 " clip-rule="nonzero"/></clipPath><clipPath id="b58fd931ec"><path d="M 0 0 L 36 0 L 36 36 L 0 36 Z M 0 0 " clip-rule="nonzero"/></clipPath><clipPath id="4b0577bb82"><path d="M 36.347656 1.101562 L 34.890625 36.355469 L -0.363281 34.898438 L 1.09375 -0.355469 Z M 36.347656 1.101562 " clip-rule="nonzero"/></clipPath><clipPath id="0ba53732c2"><path d="M 35.617188 18.726562 C 36.019531 8.992188 28.453125 0.777344 18.722656 0.375 C 8.988281 -0.0273438 0.769531 7.539062 0.367188 17.273438 C -0.0351562 27.003906 7.53125 35.222656 17.265625 35.625 C 27 36.027344 35.214844 28.460938 35.617188 18.726562 Z M 35.617188 18.726562 " clip-rule="nonzero"/></clipPath><clipPath id="d92fa87363"><rect x="0" width="36" y="0" height="36"/></clipPath><clipPath id="576de00255"><path d="M 18 18 L 78 18 L 78 78 L 18 78 Z M 18 18 " clip-rule="nonzero"/></clipPath><clipPath id="928bda1288"><path d="M 26.296875 79.382812 L 16.609375 69.695312 L 69.738281 16.566406 L 79.425781 26.253906 Z M 26.296875 79.382812 " clip-rule="nonzero"/></clipPath><clipPath id="d821f2efe9"><path d="M 23.117188 76.203125 L 19.792969 72.878906 C 18.949219 72.035156 18.472656 70.890625 18.472656 69.695312 C 18.472656 68.503906 18.949219 67.359375 19.792969 66.515625 L 66.527344 19.777344 C 67.371094 18.933594 68.515625 18.460938 69.710938 18.460938 C 70.902344 18.460938 72.046875 18.933594 72.890625 19.777344 L 76.214844 23.101562 C 77.058594 23.945312 77.53125 25.089844 77.53125 26.285156 C 77.53125 27.476562 77.058594 28.621094 76.214844 29.464844 L 29.480469 76.203125 C 28.636719 77.046875 27.492188 77.519531 26.296875 77.519531 C 25.105469 77.519531 23.960938 77.046875 23.117188 76.203125 Z M 23.117188 76.203125 " clip-rule="nonzero"/></clipPath><clipPath id="6a6de69464"><path d="M 0.238281 0.238281 L 59.761719 0.238281 L 59.761719 59.519531 L 0.238281 59.519531 Z M 0.238281 0.238281 " clip-rule="nonzero"/></clipPath><clipPath id="757687e894"><path d="M 8.296875 61.382812 L -1.390625 51.695312 L 51.738281 -1.433594 L 61.425781 8.253906 Z M 8.296875 61.382812 " clip-rule="nonzero"/></clipPath><clipPath id="47560c90e2"><path d="M 5.117188 58.203125 L 1.792969 54.878906 C 0.949219 54.035156 0.472656 52.890625 0.472656 51.695312 C 0.472656 50.503906 0.949219 49.359375 1.792969 48.515625 L 48.527344 1.777344 C 49.371094 0.933594 50.515625 0.460938 51.710938 0.460938 C 52.902344 0.460938 54.046875 0.933594 54.890625 1.777344 L 58.214844 5.101562 C 59.058594 5.945312 59.53125 7.089844 59.53125 8.285156 C 59.53125 9.476562 59.058594 10.621094 58.214844 11.464844 L 11.480469 58.203125 C 10.636719 59.046875 9.492188 59.519531 8.296875 59.519531 C 7.105469 59.519531 5.960938 59.046875 5.117188 58.203125 Z M 5.117188 58.203125 " clip-rule="nonzero"/></clipPath><clipPath id="366a2bbd82"><rect x="0" width="60" y="0" height="60"/></clipPath><clipPath id="edd1ed7092"><path d="M 18 18 L 78 18 L 78 78 L 18 78 Z M 18 18 " clip-rule="nonzero"/></clipPath><clipPath id="7cda7be796"><path d="M 79.386719 69.695312 L 69.699219 79.382812 L 16.570312 26.253906 L 26.257812 16.566406 Z M 79.386719 69.695312 " clip-rule="nonzero"/></clipPath><clipPath id="4faf55fe1c"><path d="M 76.207031 72.878906 L 72.882812 76.203125 C 72.039062 77.046875 70.894531 77.519531 69.699219 77.519531 C 68.507812 77.519531 67.363281 77.046875 66.519531 76.203125 L 19.785156 29.464844 C 18.941406 28.621094 18.464844 27.476562 18.464844 26.285156 C 18.464844 25.089844 18.941406 23.945312 19.785156 23.101562 L 23.105469 19.777344 C 23.953125 18.933594 25.097656 18.460938 26.289062 18.460938 C 27.484375 18.460938 28.628906 18.933594 29.472656 19.777344 L 76.207031 66.515625 C 77.050781 67.359375 77.523438 68.503906 77.523438 69.695312 C 77.523438 70.890625 77.050781 72.035156 76.207031 72.878906 Z M 76.207031 72.878906 " clip-rule="nonzero"/></clipPath><clipPath id="ef6a046fd9"><path d="M 0.238281 0.238281 L 59.761719 0.238281 L 59.761719 59.519531 L 0.238281 59.519531 Z M 0.238281 0.238281 " clip-rule="nonzero"/></clipPath><clipPath id="3284c8ae24"><path d="M 61.386719 51.695312 L 51.699219 61.382812 L -1.429688 8.253906 L 8.257812 -1.433594 Z M 61.386719 51.695312 " clip-rule="nonzero"/></clipPath><clipPath id="a97829caa1"><path d="M 58.207031 54.878906 L 54.882812 58.203125 C 54.039062 59.046875 52.894531 59.519531 51.699219 59.519531 C 50.507812 59.519531 49.363281 59.046875 48.519531 58.203125 L 1.785156 11.464844 C 0.941406 10.621094 0.464844 9.476562 0.464844 8.285156 C 0.464844 7.089844 0.941406 5.945312 1.785156 5.101562 L 5.105469 1.777344 C 5.953125 0.933594 7.097656 0.460938 8.289062 0.460938 C 9.484375 0.460938 10.628906 0.933594 11.472656 1.777344 L 58.207031 48.515625 C 59.050781 49.359375 59.523438 50.503906 59.523438 51.695312 C 59.523438 52.890625 59.050781 54.035156 58.207031 54.878906 Z M 58.207031 54.878906 " clip-rule="nonzero"/></clipPath><clipPath id="e5fa1edfe5"><rect x="0" width="60" y="0" height="60"/></clipPath></defs><g clip-path="url(#d51314e144)"><g transform="matrix(1, 0, 0, 1, 0, -0.000000000000008101)"><g clip-path="url(#a2941e2da2)"><g clip-path="url(#182a1c9059)"><g clip-path="url(#84bbbe5c00)"><rect x="-21.12" width="138.24" fill="#10b981" height="138.239999" y="-21.12" fill-opacity="1"/></g></g></g></g></g><g clip-path="url(#4bb86e74ba)"><g clip-path="url(#82e2b69cbe)"><g clip-path="url(#eb0acf0430)"><g transform="matrix(1, 0, 0, 1, 30, 30)"><g clip-path="url(#d92fa87363)"><g clip-path="url(#b58fd931ec)"><g clip-path="url(#4b0577bb82)"><g clip-path="url(#0ba53732c2)"><path fill="#ffffff" d="M 36.347656 1.101562 L 34.890625 36.355469 L -0.363281 34.898438 L 1.09375 -0.355469 Z M 36.347656 1.101562 " fill-opacity="1" fill-rule="nonzero"/></g></g></g></g></g></g></g></g><g clip-path="url(#576de00255)"><g clip-path="url(#928bda1288)"><g clip-path="url(#d821f2efe9)"><g transform="matrix(1, 0, 0, 1, 18, 18)"><g clip-path="url(#366a2bbd82)"><g clip-path="url(#6a6de69464)"><g clip-path="url(#757687e894)"><g clip-path="url(#47560c90e2)"><path fill="#ffffff" d="M 8.296875 61.382812 L -1.390625 51.695312 L 51.703125 -1.394531 L 61.390625 8.292969 Z M 8.296875 61.382812 " fill-opacity="1" fill-rule="nonzero"/></g></g></g></g></g></g></g></g><g clip-path="url(#edd1ed7092)"><g clip-path="url(#7cda7be796)"><g clip-path="url(#4faf55fe1c)"><g transform="matrix(1, 0, 0, 1, 18, 18)"><g clip-path="url(#e5fa1edfe5)"><g clip-path="url(#ef6a046fd9)"><g clip-path="url(#3284c8ae24)"><g clip-path="url(#a97829caa1)"><path fill="#ffffff" d="M 61.386719 51.695312 L 51.699219 61.382812 L -1.390625 8.292969 L 8.296875 -1.394531 Z M 61.386719 51.695312 " fill-opacity="1" fill-rule="nonzero"/></g></g></g></g></g></g></g></g></svg>